<mxfile host="app.diagrams.net" modified="2023-11-21T10:57:48.430Z" agent="Mozilla/5.0 (Macintosh; Intel Mac OS X 10_15_7) AppleWebKit/537.36 (KHTML, like Gecko) Chrome/119.0.0.0 Safari/537.36" version="22.1.3" etag="9dV-JEbalAatxHBq1l3d" type="github">
  <diagram name="Seite-1" id="C54G58t_tL5L7eBoufX1">
    <mxGraphModel>
      <root>
        <mxCell id="0" />
        <mxCell id="1" parent="0" />
      </root>
    </mxGraphModel>
  </diagram>
</mxfile>
